<?xml version="1.0" encoding="utf-8"?>
<!-- Generator: Adobe Illustrator 18.1.1, SVG Export Plug-In . SVG Version: 6.00 Build 0)  -->
<!DOCTYPE svg PUBLIC "-//W3C//DTD SVG 1.1//EN" "http://www.w3.org/Graphics/SVG/1.1/DTD/svg11.dtd">
<svg version="1.1" id="Layer_1" xmlns="http://www.w3.org/2000/svg" xmlns:xlink="http://www.w3.org/1999/xlink" x="0px" y="0px"
	 width="175px" height="168px" viewBox="0 0 175 168" enable-background="new 0 0 175 168" xml:space="preserve">
<g>
	<path fill="#79DD1A" d="M167,0H8C3.58173,0,0,3.58173,0,8v152c0,4.41827,3.58173,8,8,8h159c4.41827,0,8-3.58173,8-8V8
		C175,3.58173,171.41827,0,167,0z M133.22333,138L98.73676,90.80817L87.6936,83.23682l-11.04327,7.61804L42.16376,138h-8.83868
		c0.81732-2,11.15869-21.55823,12.59357-24.37817c1.43225-2.8147,41.77496-87.25146,41.77496-87.25146l41.77545,87.29816
		C130.90332,116.48846,141.24469,136,142.06201,138H133.22333z"/>
</g>
</svg>
