<?xml version="1.0" encoding="utf-8"?>
<!-- Generator: Adobe Illustrator 18.1.0, SVG Export Plug-In . SVG Version: 6.00 Build 0)  -->
<!DOCTYPE svg PUBLIC "-//W3C//DTD SVG 1.1//EN" "http://www.w3.org/Graphics/SVG/1.1/DTD/svg11.dtd">
<svg version="1.1" id="Layer_1" xmlns="http://www.w3.org/2000/svg" xmlns:xlink="http://www.w3.org/1999/xlink" x="0px" y="0px"
	 viewBox="0 0 11.969 13.943" enable-background="new 0 0 11.969 13.943" xml:space="preserve">
<g>
	<path fill="#2692FF" d="M5.964,11.021c-2.15,0-4.068-0.564-5.333-1.448c-0.368,0.39-0.574,0.806-0.574,1.21
		c0,1.406,2.426,2.972,5.907,2.972s5.907-1.566,5.907-2.972c0-0.404-0.206-0.82-0.574-1.21C10.033,10.457,8.114,11.021,5.964,11.021
		z"/>
	<path fill="#2692FF" d="M5.964,7.07c-2.072,0-3.925-0.526-5.189-1.356C0.314,6.145,0.057,6.615,0.057,7.07
		c0,1.406,2.426,2.972,5.907,2.972s5.907-1.566,5.907-2.972c0-0.455-0.257-0.926-0.718-1.356C9.889,6.544,8.036,7.07,5.964,7.07z"/>
	<path fill="#2692FF" d="M5.964,0.147c-3.481,0-5.907,1.566-5.907,2.972c0,1.406,2.426,2.972,5.907,2.972s5.907-1.566,5.907-2.972
		C11.871,1.714,9.445,0.147,5.964,0.147z"/>
</g>
<path fill-rule="evenodd" clip-rule="evenodd" fill="#FFFFFF" d="M-37.604,2.042"/>
<g>
	<g>
		<path fill="#2692FF" d="M-177.738,90.38c3.071,0,5.67,1.269,5.67,2.774c0,0.56-0.359,1.085-0.98,1.531l-0.009,0.009
			c-0.087,0.061-0.175,0.122-0.271,0.175l-0.149,0.088l-0.21,0.114l-0.149,0.07c-0.989,0.464-2.31,0.761-3.745,0.779h-0.166
			c-1.479,0-2.835-0.289-3.859-0.761l-0.201-0.096l-0.166-0.088l-0.184-0.105l-0.254-0.166l-0.026-0.018
			c-0.613-0.446-0.98-0.971-0.98-1.531C-183.417,91.649-180.818,90.38-177.738,90.38z"/>
		<path fill="#2692FF" d="M-173.582,103.479c-1.12,0.595-2.511,0.901-4.13,0.901c-1.61,0-3.001-0.298-4.13-0.892
			c-1.041-0.543-1.549-1.164-1.549-1.873l-0.018-5.521c0.079,0.07,0.175,0.131,0.271,0.201l0.166,0.123l0.079,0.044
			c0.149,0.096,0.306,0.192,0.472,0.28h0.009c0.149,0.079,0.306,0.158,0.473,0.228l0.087,0.035l0.385,0.158l0.359,0.114l0.131,0.044
			c0.77,0.236,1.601,0.376,2.503,0.429h0.035c0.201,0.009,0.411,0.018,0.612,0.018h0.088l0,0h0.009c1.4,0,2.66-0.21,3.754-0.621
			l0.262-0.105l0.21-0.088c0.14-0.061,0.28-0.131,0.42-0.201l0.035-0.018l0.009-0.009c0.166-0.079,0.315-0.175,0.455-0.262
			l0.087-0.052l0.114-0.088c0.114-0.079,0.228-0.158,0.324-0.236l0.018,5.512C-172.042,102.315-172.54,102.928-173.582,103.479z"/>
	</g>
</g>
<g>
	<path fill="#2692FF" d="M136.776,0.532h-8.438c-0.965,0-1.75,0.677-1.75,1.508v10.307c0,0.831,0.785,1.508,1.75,1.508h8.438
		c0.965,0,1.75-0.677,1.75-1.508V2.04C138.526,1.208,137.741,0.532,136.776,0.532z M129.885,11.318h-1.224v-1h1.224V11.318z
		 M129.885,8.902h-1.224v-1h1.224V8.902z M129.885,6.485h-1.224v-1h1.224V6.485z M129.885,4.068h-1.224v-1h1.224V4.068z
		 M136.932,11.318h-6.042v-1h6.042V11.318z M136.932,8.902h-6.042v-1h6.042V8.902z M136.932,6.485h-6.042v-1h6.042V6.485z
		 M136.932,4.068h-6.042v-1h6.042V4.068z"/>
</g>
<path fill="#2692FF" d="M218.833,5.458"/>
<g>
	<polygon fill="#2692FF" points="191.031,12.344 191.031,0.094 189.531,0.094 189.531,13.844 203.333,13.844 203.333,12.344 	"/>
	<path fill="#2692FF" d="M193.703,10.697c0.653-0.12,1.077-0.782,0.949-1.477c-0.058-0.316-0.221-0.586-0.445-0.775l0.76-1.428
		c0.237,0.138,0.515,0.195,0.798,0.143c0.397-0.073,0.71-0.348,0.867-0.708l1.26,0.883c-0.082,0.218-0.11,0.467-0.063,0.721
		c0.128,0.695,0.763,1.161,1.413,1.041c0.653-0.12,1.077-0.782,0.949-1.477c-0.053-0.29-0.194-0.54-0.39-0.725l1.729-3.029
		c0.214,0.101,0.454,0.137,0.699,0.092c0.653-0.12,1.077-0.782,0.949-1.477c-0.128-0.695-0.76-1.162-1.413-1.041
		c-0.653,0.12-1.077,0.782-0.949,1.477c0.049,0.267,0.173,0.503,0.345,0.683l-1.74,3.047c-0.197-0.081-0.419-0.109-0.644-0.068
		c-0.258,0.048-0.483,0.181-0.651,0.367l-1.392-0.974c0.003-0.095-0.003-0.191-0.021-0.289c-0.128-0.695-0.763-1.161-1.413-1.041
		c-0.653,0.12-1.077,0.782-0.949,1.477c0.042,0.225,0.134,0.427,0.266,0.594l-0.802,1.508c-0.182-0.061-0.378-0.078-0.577-0.041
		c-0.653,0.12-1.077,0.782-0.949,1.477C192.418,10.351,193.05,10.817,193.703,10.697z"/>
</g>
<g>
	<path fill="#2692FF" d="M261.603,8.984h-6.983v-1h5.896c-0.34-0.421-0.607-0.896-0.787-1.417h-5.109v-1h4.887
		c-0.02-0.175-0.053-0.345-0.053-0.525c0-0.305,0.034-0.602,0.09-0.892h-4.924v-1h5.238c0.525-1.189,1.53-2.105,2.765-2.537h-8.325
		c-0.965,0-1.75,0.677-1.75,1.508v10.307c0,0.831,0.785,1.508,1.75,1.508h8.438c0.965,0,1.75-0.677,1.75-1.508V9.718
		c-0.108,0.007-0.211,0.033-0.321,0.033C263.218,9.75,262.341,9.465,261.603,8.984z M262.411,11.4h-7.791v-1h7.791V11.4z"/>
	<path fill="#FFFFFF" d="M264.485,6.383c-0.032-0.004-0.062-0.012-0.096-0.012h-0.451c-0.298,0-0.539,0.153-0.539,0.34v0.283
		c0,0.187,0.241,0.34,0.539,0.34h0.451c0.034,0,0.064-0.008,0.096-0.012c0.25-0.03,0.442-0.162,0.442-0.328V6.711
		C264.927,6.545,264.734,6.413,264.485,6.383z"/>
	<path fill="#FFFFFF" d="M263.937,5.691h0.359c0.067,0,0.129-0.01,0.188-0.023c0.204-0.048,0.35-0.168,0.35-0.316V3.09
		c0-0.145-0.146-0.267-0.35-0.316c-0.059-0.014-0.121-0.024-0.188-0.024h-0.359c-0.298,0-0.539,0.153-0.539,0.34v2.261
		C263.399,5.542,263.639,5.691,263.937,5.691z"/>
	<path fill="#2692FF" d="M264.29,1.445c-0.043-0.002-0.084-0.013-0.127-0.013c-1.298,0-2.426,0.69-3.062,1.718
		c-0.19,0.306-0.332,0.642-0.423,1c-0.073,0.287-0.124,0.582-0.124,0.891c0,0.18,0.028,0.352,0.053,0.525
		c0.052,0.353,0.15,0.688,0.296,1c0.267,0.569,0.673,1.057,1.181,1.417c0.104,0.074,0.217,0.133,0.329,0.196
		c0.521,0.291,1.112,0.472,1.752,0.472c0.11,0,0.214-0.023,0.322-0.032c1.841-0.165,3.288-1.694,3.288-3.577
		C267.772,3.091,266.224,1.513,264.29,1.445z M263.399,3.09c0-0.187,0.241-0.34,0.539-0.34h0.359c0.067,0,0.129,0.01,0.188,0.024
		c0.204,0.049,0.35,0.171,0.35,0.316v2.261c0,0.148-0.146,0.269-0.35,0.316c-0.059,0.014-0.121,0.023-0.188,0.023h-0.359
		c-0.298,0-0.539-0.149-0.539-0.34V3.09z M264.927,6.994c0,0.166-0.192,0.298-0.442,0.328c-0.032,0.004-0.062,0.012-0.096,0.012
		h-0.451c-0.298,0-0.539-0.153-0.539-0.34V6.711c0-0.187,0.241-0.34,0.539-0.34h0.451c0.034,0,0.064,0.008,0.096,0.012
		c0.25,0.03,0.442,0.162,0.442,0.328V6.994z"/>
</g>
<g>
	<g>
		<path opacity="0.3" fill="#2692FF" d="M327.062,12.272c0.115,0.2,0.046,0.459-0.154,0.574l-0.156,0.09
			c-0.2,0.116-0.459,0.047-0.574-0.153l-1.034-1.791c-0.116-0.2-0.046-0.458,0.154-0.574l0.156-0.09
			c0.2-0.115,0.459-0.047,0.574,0.154L327.062,12.272z"/>
		<path opacity="0.2" fill="#2692FF" d="M329.144,9.817c0.2,0.115,0.269,0.374,0.153,0.574l-0.09,0.156
			c-0.116,0.2-0.374,0.27-0.574,0.154l-1.791-1.034c-0.2-0.116-0.269-0.374-0.153-0.574l0.09-0.156
			c0.116-0.2,0.374-0.27,0.574-0.154L329.144,9.817z"/>
		<path opacity="0.15" fill="#2692FF" d="M329.719,6.649c0.231,0,0.42,0.189,0.42,0.421l0,0.18c0,0.231-0.189,0.42-0.42,0.42
			l-2.068,0c-0.231,0-0.42-0.189-0.42-0.421V7.07c0-0.231,0.189-0.421,0.42-0.42L329.719,6.649z"/>
		<path opacity="0.1" fill="#2692FF" d="M328.633,3.619c0.2-0.115,0.458-0.046,0.574,0.154l0.09,0.156
			c0.116,0.2,0.047,0.459-0.154,0.574l-1.791,1.034c-0.2,0.116-0.458,0.046-0.574-0.154l-0.09-0.156
			c-0.115-0.2-0.047-0.459,0.154-0.574L328.633,3.619z"/>
		<path opacity="0.05" fill="#2692FF" d="M326.178,1.537c0.116-0.2,0.374-0.269,0.574-0.153l0.156,0.09
			c0.2,0.116,0.27,0.374,0.154,0.574l-1.034,1.791c-0.116,0.2-0.374,0.269-0.574,0.153l-0.156-0.09
			c-0.2-0.115-0.27-0.374-0.154-0.574L326.178,1.537z"/>
	</g>
	<g>
		<path opacity="0.4" fill="#2692FF" d="M324.032,13.358c0,0.231-0.19,0.42-0.421,0.42h-0.18c-0.232,0-0.421-0.189-0.421-0.42
			v-2.068c0-0.231,0.189-0.42,0.421-0.42h0.18c0.231,0,0.421,0.189,0.421,0.42V13.358z"/>
		<path fill="#2692FF" d="M323.01,0.962c0-0.231,0.189-0.42,0.421-0.42l0.18,0c0.231,0,0.42,0.189,0.42,0.42l0,2.068
			c0,0.231-0.189,0.42-0.421,0.42l-0.18,0c-0.231,0-0.421-0.189-0.42-0.42L323.01,0.962z"/>
		<path opacity="0.9" fill="#2692FF" d="M319.98,2.048c-0.115-0.2-0.046-0.459,0.154-0.574l0.156-0.09
			c0.2-0.115,0.459-0.046,0.574,0.154l1.034,1.791c0.115,0.2,0.046,0.458-0.154,0.574l-0.156,0.09
			c-0.2,0.115-0.459,0.047-0.574-0.154L319.98,2.048z"/>
		<path opacity="0.8" fill="#2692FF" d="M317.898,4.503c-0.2-0.116-0.269-0.374-0.153-0.574l0.09-0.156
			c0.116-0.2,0.374-0.269,0.574-0.154l1.791,1.034c0.2,0.116,0.269,0.374,0.154,0.574l-0.09,0.156
			c-0.115,0.2-0.374,0.269-0.574,0.154L317.898,4.503z"/>
		<path opacity="0.7" fill="#2692FF" d="M317.323,7.671c-0.231,0-0.42-0.189-0.42-0.421l0-0.18c0-0.231,0.189-0.421,0.42-0.421
			h2.068c0.231,0,0.42,0.189,0.42,0.421v0.18c0,0.231-0.189,0.42-0.42,0.42L317.323,7.671z"/>
		<path opacity="0.6" fill="#2692FF" d="M318.409,10.701c-0.2,0.115-0.459,0.046-0.574-0.154l-0.09-0.156
			c-0.115-0.2-0.047-0.459,0.154-0.574l1.791-1.034c0.2-0.115,0.458-0.046,0.574,0.154l0.09,0.156
			c0.115,0.2,0.046,0.459-0.154,0.574L318.409,10.701z"/>
		<path opacity="0.5" fill="#2692FF" d="M320.864,12.783c-0.115,0.2-0.374,0.269-0.574,0.153l-0.156-0.09
			c-0.2-0.116-0.27-0.374-0.154-0.575l1.034-1.791c0.116-0.2,0.374-0.269,0.574-0.154l0.156,0.09c0.2,0.115,0.27,0.374,0.154,0.574
			L320.864,12.783z"/>
	</g>
</g>
<g>
	<path fill="#2692FF" d="M398.853,6.474h-2.08l-0.01-0.19c-0.159-3.103-2.759-5.534-5.919-5.534
		c-3.305,0.025-5.891,2.559-5.935,5.768c-0.042,3.145,2.376,5.702,5.54,5.904l0.043-1.248c-2.458-0.184-4.336-2.186-4.311-4.642
		c0.033-2.484,2.108-4.516,4.625-4.529c2.472,0,4.512,1.869,4.684,4.256l0.016,0.214h-2.048l2.697,2.696L398.853,6.474z"/>
</g>
<path fill="#2692FF" d="M391.489,3.798c-0.3,0-0.543,0.243-0.543,0.543v2.715h-1.991c-0.3,0-0.543,0.243-0.543,0.543
	c0,0.3,0.243,0.543,0.543,0.543h3.077V4.341C392.032,4.041,391.789,3.798,391.489,3.798z"/>
<path fill-rule="evenodd" clip-rule="evenodd" fill="#2692FF" d="M455.173,0.292h6.229c0.527,0,0.958,0.431,0.958,0.958v11.5
	c0,0.527-0.431,0.958-0.958,0.958h-6.229c-0.527,0-0.958-0.431-0.958-0.958V1.25C454.215,0.723,454.646,0.292,455.173,0.292z
	 M456.611,2.209h3.354c0.527,0,0.479,0.431,0.479,0.958s0.048,0.958-0.479,0.958h-3.354c-0.527,0-0.479-0.431-0.479-0.958
	S456.083,2.209,456.611,2.209z M456.611,8.437h3.354c0.264,0,0.479,0.216,0.479,0.479s-0.216,0.479-0.479,0.479h-3.354
	c-0.264,0-0.479-0.216-0.479-0.479S456.347,8.437,456.611,8.437z M456.611,10.354h3.354c0.264,0,0.479,0.216,0.479,0.479
	s-0.216,0.479-0.479,0.479h-3.354c-0.264,0-0.479-0.216-0.479-0.479S456.347,10.354,456.611,10.354z"/>
<g>
	<path fill="#2692FF" d="M68.018,9.694c-0.534-0.392-0.768-1.215-1.221-2.353l-0.024-0.054c-0.105,0.015-0.21,0.015-0.291-0.031
		c-0.21-0.131-0.331-0.838-0.339-1.184c-0.008-0.515,0.259-0.461,0.259-0.461l0.024-0.008l-0.008-0.123
		c0-0.484-0.089-1.261,0.032-1.684c0.186-0.661,0.469-1.169,0.913-1.392c0.525-0.269,1.431-0.961,1.77-0.961
		c0.283,0,1.148,0.708,1.754,0.954c0.469,0.185,0.735,0.731,0.921,1.392c0.129,0.438,0.032,1.231,0.032,1.692v0.123l0.008,0.008
		c0,0,0.267-0.054,0.259,0.461c0,0.346-0.129,1.054-0.339,1.184c-0.081,0.046-0.178,0.046-0.283,0.031L71.47,7.333
		c-0.453,1.131-0.703,1.961-1.229,2.361c1.746,0.215,2.724,0.908,3.548,1.269c0.691,0.303,1.087,0.617,1.325,0.883V2.04
		c0-0.831-0.785-1.508-1.75-1.508h-8.438c-0.965,0-1.75,0.677-1.75,1.508v9.806c0.238-0.267,0.634-0.58,1.325-0.883
		C65.319,10.609,66.281,9.917,68.018,9.694z"/>
</g>
</svg>
