<?xml version="1.0" encoding="utf-8"?>
<!-- Generator: Adobe Illustrator 19.1.0, SVG Export Plug-In . SVG Version: 6.00 Build 0)  -->
<!DOCTYPE svg PUBLIC "-//W3C//DTD SVG 1.1//EN" "http://www.w3.org/Graphics/SVG/1.1/DTD/svg11.dtd">
<svg version="1.1" id="Layer_1" xmlns="http://www.w3.org/2000/svg" xmlns:xlink="http://www.w3.org/1999/xlink" x="0px" y="0px"
	 width="24px" height="24px" viewBox="0 0 24 24" enable-background="new 0 0 24 24" xml:space="preserve">
<g>
	<path fill="#888888" d="M12,22.9375c-6.04834,0-10.96875-4.9209-10.96875-10.96875C1.03125,5.92041,5.95166,1,12,1
		c6.04785,0,10.96875,4.92041,10.96875,10.96875C22.96875,18.0166,18.04785,22.9375,12,22.9375z"/>
	<g>
		<path fill="#FFFFFF" d="M12,2c5.49679,0,9.96875,4.47196,9.96875,9.96875S17.49679,21.9375,12,21.9375
			s-9.96875-4.47196-9.96875-9.96875S6.50321,2,12,2 M12,0C5.38984,0,0.03125,5.35859,0.03125,11.96875S5.38984,23.9375,12,23.9375
			s11.96875-5.35859,11.96875-11.96875S18.61016,0,12,0L12,0z"/>
	</g>
</g>
<g>
	<path fill="#FFFFFF" d="M7.23193,9.6875c0,0.3335-0.24316,0.59424-0.62988,0.59424c-0.36914,0-0.6123-0.26074-0.6123-0.59424
		c0-0.3418,0.25195-0.60303,0.62109-0.60303C6.98877,9.08447,7.22314,9.3457,7.23193,9.6875z M6.05273,15.29688v-4.38477h1.11621
		v4.38477H6.05273z"/>
	<path fill="#FFFFFF" d="M13.78516,12.19971c0,2.03467-1.23291,3.1958-2.90771,3.1958c-1.71045,0-2.79053-1.30566-2.79053-3.08789
		c0-1.86377,1.17041-3.17822,2.88086-3.17822C12.74121,9.12939,13.78516,10.47119,13.78516,12.19971z M9.25732,12.28955
		c0,1.23389,0.62109,2.21533,1.68311,2.21533c1.07178,0,1.6748-0.99121,1.6748-2.26025c0-1.14355-0.56738-2.22363-1.6748-2.22363
		C9.84229,10.021,9.25732,11.03809,9.25732,12.28955z"/>
	<path fill="#FFFFFF" d="M14.71094,14.08984c0.35938,0.20703,0.89941,0.3877,1.4668,0.3877
		c0.71191,0,1.10742-0.33301,1.10742-0.82812c0-0.45898-0.30566-0.72998-1.08008-1.00879
		c-0.99902-0.36035-1.63867-0.89111-1.63867-1.76465c0-0.99023,0.82812-1.74658,2.14258-1.74658
		c0.65723,0,1.14355,0.14404,1.45898,0.30615l-0.27051,0.89111c-0.21582-0.1167-0.63867-0.28809-1.20605-0.28809
		c-0.70215,0-1.00879,0.37842-1.00879,0.72949c0,0.46826,0.35156,0.68408,1.16113,0.99902
		c1.05371,0.39648,1.56738,0.92773,1.56738,1.80127c0,0.97168-0.73828,1.81836-2.30469,1.81836
		c-0.63965,0-1.30566-0.17969-1.63867-0.37793L14.71094,14.08984z"/>
</g>
</svg>
