<?xml version="1.0" encoding="utf-8"?>
<!-- Generator: Adobe Illustrator 18.1.1, SVG Export Plug-In . SVG Version: 6.00 Build 0)  -->
<!DOCTYPE svg PUBLIC "-//W3C//DTD SVG 1.1//EN" "http://www.w3.org/Graphics/SVG/1.1/DTD/svg11.dtd">
<svg version="1.1" id="Layer_1" xmlns="http://www.w3.org/2000/svg" xmlns:xlink="http://www.w3.org/1999/xlink" x="0px" y="0px"
	 width="24px" height="24px" viewBox="0 0 24 24" enable-background="new 0 0 24 24" xml:space="preserve">
<g>
	<path fill="#82BB22" d="M12,22.9375c-6.04834,0-10.96875-4.9209-10.96875-10.96875C1.03125,5.92041,5.95166,1,12,1
		c6.04785,0,10.96875,4.92041,10.96875,10.96875C22.96875,18.0166,18.04785,22.9375,12,22.9375z"/>
	<g>
		<path fill="#FFFFFF" d="M12,2c5.49679,0,9.96875,4.47196,9.96875,9.96875S17.49679,21.9375,12,21.9375
			s-9.96875-4.47196-9.96875-9.96875S6.50321,2,12,2 M12,0C5.38984,0,0.03125,5.35859,0.03125,11.96875S5.38984,23.9375,12,23.9375
			s11.96875-5.35859,11.96875-11.96875S18.61016,0,12,0L12,0z"/>
	</g>
</g>
<path fill-rule="evenodd" clip-rule="evenodd" fill="#FFFFFF" d="M16.03553,10.02378c0-0.15606-0.08212-0.29948-0.21682-0.3768
	L12.2285,7.5808c-0.06073-0.0357-0.12879-0.05428-0.19767-0.0571c-0.00619,0-0.03208,0-0.03712,0
	c-0.06861,0.00282-0.13665,0.02139-0.19825,0.0571L8.20523,9.64698C8.0714,9.7243,7.98816,9.86772,7.98816,10.02378l0.00789,5.56359
	c0,0.07734,0.0402,0.14932,0.10826,0.18727c0.06663,0.03994,0.14901,0.03994,0.21538,0l2.13368-1.22178
	c0.13496-0.08013,0.21708-0.22157,0.21708-0.37622v-2.5993c0-0.15494,0.08209-0.29836,0.2165-0.37538l0.90853-0.5233
	c0.06775-0.0391,0.14172-0.05822,0.21736-0.05822c0.07394,0,0.14987,0.01912,0.21567,0.05822l0.90824,0.5233
	c0.13441,0.07702,0.21679,0.22045,0.21679,0.37538v2.5993c0,0.15465,0.08324,0.29695,0.21736,0.37622l2.1331,1.22178
	c0.06692,0.03994,0.15045,0.03994,0.21679,0c0.06608-0.03795,0.10772-0.10993,0.10772-0.18727L16.03553,10.02378z"/>
</svg>
