<?xml version="1.0" encoding="utf-8"?>
<!-- Generator: Adobe Illustrator 18.1.1, SVG Export Plug-In . SVG Version: 6.00 Build 0)  -->
<!DOCTYPE svg PUBLIC "-//W3C//DTD SVG 1.1//EN" "http://www.w3.org/Graphics/SVG/1.1/DTD/svg11.dtd">
<svg version="1.1" id="Layer_1" xmlns="http://www.w3.org/2000/svg" xmlns:xlink="http://www.w3.org/1999/xlink" x="0px" y="0px"
	 width="24px" height="24px" viewBox="0 0 24 24" enable-background="new 0 0 24 24" xml:space="preserve">
<g>
	<path fill="#A4C439" d="M12,22.9375c-6.04834,0-10.96875-4.9209-10.96875-10.96875C1.03125,5.92041,5.95166,1,12,1
		c6.04785,0,10.96875,4.92041,10.96875,10.96875C22.96875,18.0166,18.04785,22.9375,12,22.9375z"/>
	<g>
		<path fill="#FFFFFF" d="M12,2c5.49679,0,9.96875,4.47196,9.96875,9.96875S17.49679,21.9375,12,21.9375
			s-9.96875-4.47196-9.96875-9.96875S6.50321,2,12,2 M12,0C5.38984,0,0.03125,5.35859,0.03125,11.96875S5.38984,23.9375,12,23.9375
			s11.96875-5.35859,11.96875-11.96875S18.61016,0,12,0L12,0z"/>
	</g>
</g>
<g id="android">
	<path fill="#FFFFFF" d="M8.53978,15.46551c0,0.34602,0.23068,0.5767,0.5767,0.5767h0.5767v2.01846
		c0,0.46136,0.40369,0.86506,0.86505,0.86506s0.86506-0.40369,0.86506-0.86506v-2.01846h1.15341v2.01846
		c0,0.46136,0.40369,0.86506,0.86506,0.86506s0.86505-0.40369,0.86505-0.86506v-2.01846h0.5767
		c0.34602,0,0.5767-0.23068,0.5767-0.5767V9.69848H8.53978V15.46551z M7.09802,9.69848c-0.46136,0-0.86505,0.40369-0.86505,0.86505
		v4.03692c0,0.46136,0.40369,0.86506,0.86505,0.86506c0.46136,0,0.86506-0.40369,0.86506-0.86506v-4.03692
		C7.96308,10.10217,7.55939,9.69848,7.09802,9.69848z M16.90198,9.69848c-0.46136,0-0.86506,0.40369-0.86506,0.86505v4.03692
		c0,0.46136,0.40369,0.86506,0.86506,0.86506c0.46136,0,0.86505-0.40369,0.86505-0.86506v-4.03692
		C17.76703,10.10217,17.36334,9.69848,16.90198,9.69848z M14.01846,6.3536l0.74971-0.74971
		c0.11534-0.11534,0.11534-0.28835,0-0.40369c-0.11534-0.11534-0.28835-0.11534-0.40369,0l-0.86505,0.86505
		C13.09574,5.7769,12.5767,5.66156,12,5.66156s-1.09574,0.11534-1.5571,0.34602L9.63552,5.14252
		c-0.11534-0.05767-0.34602-0.05767-0.46136,0c-0.05767,0.11534-0.05767,0.34602,0,0.46136L9.92387,6.3536
		C9.11648,6.98797,8.53978,7.96837,8.53978,9.12178h6.92044C15.46022,7.96837,14.88352,6.9303,14.01846,6.3536z M10.84659,7.96837
		h-0.5767v-0.5767h0.5767V7.96837z M13.73011,7.96837h-0.5767v-0.5767h0.5767V7.96837z"/>
</g>
</svg>
